<svg width="181" height="58" viewBox="0 0 181 58" fill="none" xmlns="http://www.w3.org/2000/svg">
<path d="M78.2744 38.375V44H64.3525V38.375H66.915V24.6406H64.7119L64.04 28.9219H59.6494V19.1406H83.04V28.9219H78.665L77.9931 24.6406H75.7119V38.375H78.2744ZM107.868 38.5V44H94.8831V38.5H97.3831V24.6406H94.8831V19.1406H107.868V24.6406H105.383V38.5H107.868ZM129.054 38.5V44H118.554V38.5H121.57V24.6406H118.554V19.1406H131.961L136.789 31.1094L141.57 19.1406H154.07V24.6406H151.07V38.5H154.07V44H141.054V38.5H143.07V29.2188L137.57 44H133.054L126.554 28.8594V38.5H129.054ZM178.272 38.5V44H165.288V38.5H167.788V24.6406H165.288V19.1406H178.272V24.6406H175.788V38.5H178.272Z" fill="white"/>
<path fill-rule="evenodd" clip-rule="evenodd" d="M3.83041 19.2088C3.83041 19.2088 4.14521 16.7264 4.35507 15.3859C4.35507 15.3859 6.13888 13.0027 8.972 11.0664L12.7495 11.265C12.7495 11.265 5.08958 17.0739 3.83041 19.2088Z" fill="url(#paint0_linear_55_6)"/>
<path fill-rule="evenodd" clip-rule="evenodd" d="M8.97219 11.0664C8.97219 11.0664 8.9722 13.0524 7.03099 14.6411C5.08977 16.2299 4.25032 15.6837 4.25032 15.6837L3.77814 18.8613L12.6972 11.265L8.97219 11.0664Z" fill="url(#paint1_linear_55_6)"/>
<path fill-rule="evenodd" clip-rule="evenodd" d="M49.6845 31.8692C49.6845 34.1033 49.3698 36.3376 48.7402 38.3732C47.481 42.5437 45.0151 46.2177 41.7623 49.0973C39.4538 51.1329 36.6732 52.7713 33.6302 53.8636C30.902 54.8566 27.9115 55.4027 24.816 55.4027C24.3963 55.4027 23.9241 55.4027 23.5044 55.3531C22.8748 55.3034 22.1928 55.2538 21.5632 55.2041C16.7889 54.6083 12.3818 52.7217 8.86662 49.8917C7.55499 48.8491 6.34829 47.6575 5.24652 46.3666C4.45954 45.3736 3.72503 44.3807 3.09544 43.2884C2.93805 43.0401 2.78066 42.7422 2.62326 42.494C2.62326 42.494 2.62326 42.494 2.62326 42.4444C2.46586 42.1465 2.30846 41.8982 2.20353 41.6003C1.78381 40.7066 1.41655 39.7633 1.10176 38.82C0.891896 38.1249 0.682048 37.4298 0.524652 36.7347C0.419722 36.2383 0.314791 35.7418 0.262326 35.1956C0.10493 34.1034 0 33.0111 0 31.8692C0 31.2237 -9.60823e-06 30.5783 0.104921 29.9329C0.157386 29.5357 0.209861 29.1385 0.262326 28.7413C0.577117 26.4078 1.25916 24.2232 2.256 22.1876C2.72818 21.1947 3.30531 20.2017 3.93489 19.308C4.98419 17.7689 6.19089 16.3291 7.60745 15.0382C12.067 10.9173 18.2054 8.38525 24.921 8.38525C25.1833 8.38525 25.4456 8.38525 25.708 8.38525C25.9703 8.38525 26.2851 8.38525 26.5474 8.4349C27.9639 8.5342 29.3805 8.7328 30.7446 9.03069C31.5316 9.22928 32.3186 9.42788 33.0531 9.67612C33.5777 9.82507 34.0499 10.0237 34.5746 10.2223C34.9418 10.3712 35.3091 10.5202 35.6763 10.6691C35.7288 10.7187 35.7813 10.7187 35.8862 10.7684C38.2996 11.8607 40.5031 13.3501 42.3919 15.1375C42.6542 15.3857 42.9165 15.634 43.1789 15.9319C43.3363 16.1305 43.5461 16.2794 43.7035 16.478C44.0183 16.7759 44.2806 17.1234 44.543 17.4213C45.5398 18.6129 46.3792 19.9038 47.1138 21.2443C47.9532 22.8331 48.6352 24.5211 49.1074 26.2588C49.4222 27.9965 49.6845 29.8832 49.6845 31.8692Z" fill="url(#paint2_radial_55_6)"/>
<path fill-rule="evenodd" clip-rule="evenodd" d="M35.7288 10.7189C35.6239 10.7189 35.5714 10.7189 35.4665 10.7685C35.2041 10.8182 34.9418 10.7685 34.6795 10.7189C34.4696 10.6692 34.3647 10.5699 34.1024 10.5699C33.7876 10.5203 33.5253 10.421 33.2105 10.3713C32.8957 10.3217 32.6333 10.2224 32.3186 10.1231C32.0562 10.0238 31.9513 10.0735 31.7414 10.1231C31.5316 10.1727 31.3742 10.0735 31.1643 10.0238C30.9545 9.9245 30.6921 9.9245 30.4823 9.87486C29.8527 9.77556 29.2231 9.57696 28.5935 9.42802C28.2263 9.32872 27.859 9.32872 27.4393 9.32872C27.1245 9.32872 26.8622 9.42802 26.5474 9.42802C26.3375 9.42802 26.1801 9.37837 25.9703 9.37837C25.7604 9.32872 25.5505 9.37837 25.3407 9.37837C25.0259 9.32872 24.8685 9.27907 24.5537 9.37837C24.2914 9.42802 24.134 9.42801 23.8717 9.47766C23.6093 9.47766 23.2945 9.57696 23.0322 9.62661C22.56 9.72591 22.0354 9.82521 21.5632 9.82521C21.2484 9.82521 20.8287 9.72591 20.5664 9.82521C20.409 9.87485 20.304 10.0734 20.1466 10.1727C19.8843 10.421 19.622 10.6196 19.4121 10.8678C19.2023 11.1161 18.9924 11.414 18.9924 11.7615C18.9924 12.0594 19.1498 12.4069 19.3072 12.6552C19.4646 12.9531 19.517 13.2013 19.2023 13.3999C18.835 13.6482 18.3628 13.8468 17.9431 13.9957C17.6283 14.095 17.366 14.1447 17.1561 13.9461C17.0512 13.8964 16.9987 13.7475 16.8938 13.6482C16.7889 13.5985 16.6315 13.6482 16.5265 13.6978C16.2117 13.7971 15.8969 13.8964 15.5822 13.9461C15.3723 13.9957 15.2149 14.095 15.005 14.095C14.7952 14.1447 14.6378 13.9957 14.3755 14.0454C14.0607 14.095 13.6934 14.244 13.3786 14.244C13.1163 14.244 12.8015 14.1447 12.5917 14.0454C12.4867 13.9957 12.4343 13.8964 12.2769 13.9461C12.1719 13.9461 12.0145 14.095 11.9621 14.1943C11.8571 14.2936 11.8571 14.4425 11.7522 14.5418C11.6473 14.6908 11.5948 14.7901 11.4899 14.939C11.3325 15.1873 11.1751 15.4355 11.0177 15.6838C10.9128 15.8327 10.8078 16.081 10.6504 16.2299C10.598 16.3292 10.4406 16.3789 10.3356 16.4285C10.0733 16.5774 9.81098 16.776 9.54866 16.925C9.07647 17.2725 8.60429 17.6697 8.13211 18.0173C7.76485 18.2655 7.2402 18.4145 6.82048 18.6131C6.55815 18.7123 6.29583 18.8116 6.0335 18.9109C5.92857 18.9606 5.77117 18.9606 5.7187 19.0599C5.61377 19.1592 5.56131 19.2585 5.50885 19.4074C5.29899 19.6557 5.03665 19.9536 4.87926 20.2515C4.77433 20.4501 4.72186 20.599 4.61693 20.7976C4.512 21.0458 4.3546 21.2941 4.30214 21.592C4.09228 22.1381 4.09228 22.7339 3.82995 23.28C3.72502 23.5779 3.51517 23.8758 3.35777 24.1737C3.09544 24.6702 3.04297 25.266 2.99051 25.8121C2.93804 26.11 2.99051 26.5072 3.04298 26.8051C3.09544 27.1527 3.09544 27.5002 3.09544 27.8477C3.09544 28.1953 2.83312 28.5925 2.62326 28.8407C2.4134 29.089 2.04614 29.1883 1.78381 29.4365C1.57395 29.6351 1.31162 29.8337 1.20669 30.1316C1.15423 30.2309 1.20669 30.3798 1.20669 30.5288C1.15423 30.8267 1.0493 31.0749 1.0493 31.3728C0.996839 31.7203 0.996836 32.0679 0.996836 32.4651C0.996836 32.6637 0.996836 32.8126 0.996836 33.0112C0.996836 33.2098 1.04929 33.3588 1.10176 33.5077C1.10176 33.607 1.10176 33.7559 1.10176 33.8552C1.10176 34.0042 1.20669 34.1531 1.20669 34.2524C1.31162 34.6 1.36409 34.8979 1.41655 35.2454C1.46902 35.5433 1.62641 35.8412 1.67888 36.1391C1.83627 36.5363 1.88874 36.9335 1.99367 37.3803C2.04614 37.6782 2.04614 38.0257 2.09861 38.3236C2.15107 38.5719 2.20353 38.8201 2.20353 39.0684C2.20353 39.4656 2.09861 39.8131 2.09861 40.2103C2.09861 40.8557 2.36093 41.5012 2.51832 42.1466C2.57079 42.3452 2.62325 42.4941 2.67571 42.6927C0.944361 39.5152 0 35.8908 0 32.0679C0 27.4009 1.41656 23.0814 3.88242 19.4571C4.93173 17.918 6.13843 16.4781 7.55499 15.2369C12.0145 11.1161 18.153 8.58398 24.8685 8.58398C25.3932 8.58398 25.9703 8.58399 26.4949 8.63363C29.7478 8.58399 32.8957 9.37837 35.7288 10.7189Z" fill="url(#paint3_linear_55_6)"/>
<path opacity="0.1" fill-rule="evenodd" clip-rule="evenodd" d="M26.3903 42.8913C26.3903 42.8913 28.6988 46.1184 31.7942 48.7498C34.8896 51.3812 35.3094 53.1686 35.3094 53.1686C35.3094 53.1686 41.133 50.8847 45.2778 45.4233C49.4225 40.0116 26.3903 42.8913 26.3903 42.8913Z" fill="black"/>
<path opacity="0.4" fill-rule="evenodd" clip-rule="evenodd" d="M30.5878 8.98113C29.2237 8.68323 27.8597 8.48464 26.3906 8.38534C26.1283 8.38534 25.8135 8.33569 25.5512 8.33569C26.1283 8.63359 26.7054 9.17972 26.8103 9.77551C27.0202 10.7685 27.3875 11.6622 27.5449 12.6055C27.7547 13.5488 27.7023 14.7404 27.2301 15.5844C26.9677 16.1306 26.6005 16.5774 26.1283 17.0242C25.8135 17.3221 25.4987 17.5207 25.2889 17.9179C25.079 18.3151 24.8167 18.6627 24.5543 19.0102C24.1871 19.5563 23.7674 20.1025 23.2952 20.599C23.1378 20.7976 22.9804 20.8968 22.823 21.0954C22.6656 21.3437 22.5607 21.5919 22.3508 21.7905C21.8786 22.2374 21.1966 22.5353 20.6195 22.7339C19.8325 23.0318 19.1504 23.3296 18.4159 23.7268C17.3666 24.273 16.4747 24.9184 15.268 24.9681C14.8483 24.9681 14.4286 24.9184 14.0088 24.9681C13.4842 25.0177 13.012 25.2163 12.5398 25.3156C12.1201 25.4149 11.6479 25.4645 11.2282 25.5638C10.4937 25.6631 9.91655 25.9114 9.2345 26.0603C8.34259 26.2589 7.39823 26.2093 6.45385 26.3582C5.61441 26.4575 4.93236 26.5568 4.09292 26.3582C2.83375 26.0603 2.1517 25.5142 2.41403 24.2233C2.57142 23.3793 2.51897 22.7339 2.09925 22.1381C1.10241 24.1737 0.420351 26.4079 0.10556 28.6917C0.682677 28.94 1.36472 29.0393 1.94184 29.0889C3.77812 29.2875 5.7718 28.4931 7.45069 27.8973C8.29013 27.5994 9.18204 27.1526 10.1264 27.0533C11.1233 26.954 11.9627 27.0533 12.9595 26.8547C16.3173 26.0603 19.6226 24.9681 22.6656 23.28C23.9248 22.5849 24.4494 21.5919 25.3413 20.599C26.0758 19.7053 26.9677 19.0102 27.8596 18.2655C28.7516 17.5207 29.5385 16.8256 30.0632 15.8327C30.6403 14.79 31.1125 13.5985 31.3748 12.4565C31.6371 11.1657 31.2699 9.9741 30.5878 8.98113ZM30.4305 12.1587C30.378 12.4069 30.3255 12.7048 30.273 12.953C30.0632 13.5985 29.6435 14.2439 29.0139 14.5418C28.7516 14.6907 28.3318 14.5914 28.1744 14.3432C28.0695 14.1943 28.0695 13.9957 28.0695 13.8467C28.0171 13.4992 27.9646 13.2013 27.9646 12.8537C27.9646 12.0594 27.9646 11.265 27.8596 10.4706C27.9646 10.9174 27.8597 9.77551 28.5942 9.47762C28.9614 9.32867 29.4861 9.47762 29.7484 9.72586C30.0632 10.0734 30.1681 10.6195 30.273 11.0167C30.378 11.4636 30.4829 11.7615 30.4305 12.1587Z" fill="url(#paint4_linear_55_6)"/>
<path opacity="0.4" fill-rule="evenodd" clip-rule="evenodd" d="M26.8097 49.7427C26.7572 49.7427 26.6523 49.7924 26.5998 49.7924L27.072 49.842C27.072 49.7924 26.9671 49.7427 26.8097 49.7427ZM26.8097 49.7427C26.7572 49.7427 26.6523 49.7924 26.5998 49.7924L27.072 49.842C27.072 49.7924 26.9671 49.7427 26.8097 49.7427ZM48.95 26.1595C48.95 26.7553 48.7402 27.4008 48.7402 27.9966C48.7402 28.8406 48.5828 29.486 48.3729 30.2804C48.2155 30.8265 47.9007 31.2237 47.7433 31.7699C47.5335 32.3657 47.2187 32.9118 46.9039 33.4579C46.2743 34.5502 45.5923 35.6921 45.3299 36.9333C45.0676 38.0753 45.0151 39.0186 44.438 40.0612C43.8609 41.0542 43.0215 41.8982 42.3919 42.8912C42.1296 43.338 41.9197 43.338 41.4475 43.6359C40.9753 43.9835 40.5031 44.48 40.0309 44.8275C39.0341 45.5722 38.0897 46.1184 36.8306 46.5652C36.0436 46.8631 35.3091 47.0617 34.4696 47.161C33.945 47.2603 33.4203 47.161 32.8957 47.2603C32.0562 47.4093 31.2693 47.6078 30.4298 47.8561C29.1182 48.2533 27.7541 48.5015 26.4425 48.8987C25.4981 49.147 24.6062 49.3456 23.6618 49.4945C23.0847 49.5938 22.6125 49.8917 22.0354 49.7924C21.4583 49.6931 20.8811 49.4945 20.304 49.2959C19.5695 49.0973 18.9399 49.0477 18.1529 49.0477C17.1036 49.0477 15.8445 49.1966 14.7427 48.998C13.536 48.7994 12.3818 48.4519 11.1751 48.2533C10.4406 48.1043 9.91591 47.8064 9.23386 47.5582C8.60428 47.2603 7.97471 47.2107 7.29266 47.0121C6.61061 46.8135 5.92857 46.5156 5.24652 46.3666C6.29583 47.6575 7.50252 48.8491 8.86662 49.8917C12.3818 52.7217 16.7364 54.6083 21.5632 55.2041C22.1928 55.2538 22.8224 55.3531 23.5044 55.3531C24.921 55.0552 26.2851 54.658 27.7016 54.2608C30.0626 53.5657 32.1087 52.2252 34.4696 51.5798C35.3615 51.3315 36.1485 51.0833 36.9355 50.6861C37.5651 50.3882 38.1947 50.3385 38.7718 50.0903C40.9753 49.1966 42.6017 47.2107 43.5986 45.2247C44.0183 44.331 44.438 43.338 45.2775 42.643C45.5923 42.3451 46.012 42.1465 46.2743 41.7989C46.5891 41.4514 46.799 41.0542 47.1137 40.657C47.6384 40.0116 48.1106 39.3165 48.5828 38.6711C48.6352 38.5718 48.6877 38.5221 48.7402 38.4228C49.3698 36.3376 49.6845 34.153 49.6845 31.9188C49.6845 29.8832 49.4222 27.9966 48.95 26.1595ZM26.1277 49.8917C26.2326 49.842 26.3375 49.7428 26.4425 49.6931C26.5474 49.6435 26.7048 49.6931 26.8097 49.7427C27.0196 49.6931 27.177 49.6931 27.3344 49.7924C27.4393 49.842 27.5967 49.9413 27.6492 50.0406C27.7016 50.1399 27.6492 50.1896 27.5442 50.2889C27.4393 50.3882 27.3868 50.3882 27.2294 50.3882C26.9671 50.4378 26.7048 50.4875 26.39 50.4378C26.2326 50.4378 25.9703 50.3882 25.8653 50.2889C25.8653 50.0903 26.0227 49.991 26.1277 49.8917ZM27.7541 52.9699C27.5967 53.1685 27.4393 53.3671 27.2294 53.4664C27.0196 53.6154 26.8097 53.665 26.6523 53.8139C26.1277 54.0622 25.603 54.3601 25.0784 54.509C24.8685 54.5587 24.6062 54.5587 24.3963 54.5587C24.134 54.6083 23.8192 54.6083 23.5569 54.6083C23.2421 54.6083 22.8748 54.658 22.56 54.7076C22.2452 54.7076 21.878 54.7573 21.5632 54.7573C20.9861 54.8069 20.5139 54.7076 19.9892 54.509C19.517 54.3601 19.0449 54.1118 18.6251 53.8636C18.3104 53.665 18.048 53.4168 17.8382 53.1685C17.5758 52.9699 17.4184 52.7217 17.261 52.4238C17.2086 52.3245 17.1561 52.2252 17.2086 52.0762C17.2086 52.0266 17.261 51.9769 17.261 51.9769C17.366 51.9273 17.4709 51.828 17.5234 51.828C17.6808 51.7287 17.8906 51.7287 18.1005 51.6791C18.5727 51.6294 19.0449 51.6791 19.517 51.7287C19.7794 51.7287 20.0417 51.7783 20.304 51.7287C20.6713 51.6791 21.0385 51.5798 21.3533 51.4805C22.1928 51.2819 23.0322 51.0833 23.8717 51.0336C24.7111 50.9343 25.6555 50.835 26.4949 50.984C26.8097 51.0336 27.2294 51.1329 27.4918 51.2819C27.7016 51.4308 27.859 51.6294 27.9639 51.828C28.1213 52.2252 28.0164 52.6224 27.7541 52.9699ZM34.3647 50.9343C34.2073 51.0833 33.9974 51.1826 33.7876 51.3315C33.5253 51.5301 33.2629 51.6294 33.0006 51.7784C32.7907 51.9273 32.5284 52.0266 32.3186 52.1259C32.0562 52.2252 31.8464 52.3245 31.584 52.4734C31.3217 52.5727 31.0594 52.672 30.7971 52.7713C30.5872 52.821 30.3774 52.9203 30.1675 52.8706C30.0101 52.821 29.8002 52.7713 29.6953 52.672C29.4854 52.4734 29.5379 52.2748 29.5904 52.1755C29.5904 52.0266 29.5379 51.7783 29.5904 51.5798C29.6428 51.4805 29.7478 51.3315 29.8002 51.2322C30.0101 50.835 30.3249 50.5868 30.6397 50.2889C30.902 50.0406 31.2168 49.842 31.584 49.6931C32.0038 49.5442 32.5284 49.4945 32.9481 49.4449C33.4203 49.3952 34.2598 49.3456 34.5221 49.8917C34.6795 50.2392 34.627 50.5868 34.3647 50.9343ZM27.1245 49.7924C27.072 49.7924 26.9671 49.7428 26.8622 49.6931C26.8097 49.6931 26.7048 49.7427 26.6523 49.7427L27.1245 49.7924Z" fill="url(#paint5_linear_55_6)"/>
<path opacity="0.4" fill-rule="evenodd" clip-rule="evenodd" d="M46.9566 21.1449V21.2442C46.9041 21.8897 46.6418 22.3365 46.3795 22.9323C46.1696 23.4288 45.9598 23.826 45.6974 24.2728C45.2777 25.0175 45.0679 25.7126 44.7531 26.5567C44.2284 27.7979 44.0186 29.1384 43.2316 30.2803C42.5495 31.3229 42.3397 32.5642 41.815 33.6564C41.1854 34.8977 40.1886 35.7417 39.1393 36.6354C38.6671 37.0326 38.2474 37.5291 37.8276 37.9759C37.3555 38.4227 37.0407 39.0185 36.4636 39.4157C35.3093 40.2101 33.9977 40.9052 32.8435 41.7492C32.1614 42.2457 31.6892 42.9408 30.9023 43.338C30.1677 43.7848 29.3283 44.0827 28.5938 44.4799C27.9117 44.8771 27.2297 45.2743 26.4952 45.5722C25.6557 45.8701 24.9737 45.7708 24.0818 45.8204C23.1374 45.8701 22.1406 46.1183 21.2487 46.4162C20.5141 46.6644 19.8846 46.9127 19.0976 46.6644C18.5729 46.5155 18.1532 46.168 17.6285 46.0687C16.3694 45.8204 15.0053 46.0687 13.7461 46.019C12.7493 45.9694 11.7 45.7708 10.7032 45.5722C9.75878 45.4232 8.9718 44.7778 8.07989 44.5295C6.92566 44.2316 5.61402 44.4799 4.56472 44.0827C4.09253 43.9338 3.67281 43.5862 3.30555 43.338C3.20062 43.2883 3.14816 43.2387 3.04323 43.189C2.88583 42.9408 2.72844 42.6429 2.57104 42.3946C2.83337 42.4939 3.0957 42.5932 3.35802 42.7422C4.77458 43.3876 6.5584 43.2883 8.07989 43.5366C9.81124 43.8345 11.5426 44.2316 13.2739 44.4302C14.0085 44.5295 14.6905 44.4799 15.425 44.4302C16.4219 44.3309 17.4187 44.3309 18.4155 44.182C20.0944 43.8841 21.7733 43.1394 23.5047 43.338C23.8194 43.3876 24.1867 43.5366 24.5015 43.5366C24.9737 43.5366 25.3409 43.1394 25.7082 42.8911C26.3902 42.4939 27.1248 42.5436 27.7543 41.9974C28.3315 41.4513 29.0135 41.1038 29.748 40.7562C31.6368 39.8625 33.1582 38.3731 34.6797 36.9333C35.9389 35.7417 37.1456 34.5005 37.9851 33.0607C38.8245 31.6208 38.6671 29.8831 39.2967 28.3937C39.7689 27.3014 40.1361 26.3084 40.8706 25.3651C41.2379 24.9182 41.6576 24.5211 42.0249 24.0742C42.4446 23.6274 42.6545 23.1309 42.9692 22.5848C43.284 21.989 43.7562 21.4925 44.0186 20.847C44.2809 20.2513 44.2284 19.7548 44.2284 19.1093C44.2284 18.4639 44.2284 17.7688 44.2284 17.0737C45.3302 18.5135 46.2221 19.8044 46.9566 21.1449Z" fill="url(#paint6_linear_55_6)"/>
<path opacity="0.4" fill-rule="evenodd" clip-rule="evenodd" d="M43.0215 15.8327C42.7591 15.5844 42.4968 15.2865 42.2345 15.0383C40.3457 13.2509 38.1422 11.8111 35.7288 10.6692C35.6763 10.6195 35.6239 10.6195 35.5189 10.5699C35.1517 10.4209 34.7844 10.272 34.4172 10.123C33.8925 9.92445 33.4203 9.72585 32.8957 9.5769C33.0531 9.6762 33.2629 9.7755 33.3154 9.7755C33.6302 9.92445 33.8925 10.0237 34.1024 10.272C34.3122 10.5202 34.4172 10.7188 34.4172 11.0664C34.4172 11.3643 34.4696 11.7118 34.5221 12.0097C34.5746 12.3076 34.732 12.5558 34.7844 12.8537C34.8369 13.0027 34.8369 13.1516 34.8894 13.3502C34.9943 13.7474 35.1517 14.1446 35.2566 14.5418C35.414 15.2865 34.9943 15.8823 34.732 16.5277C34.3122 17.5704 34.0499 18.613 33.6827 19.7053C33.4203 20.5493 32.9482 21.3933 32.2661 22.0388C31.5841 22.6346 30.5872 22.7835 30.0101 23.4289C29.4854 24.0247 28.8559 24.5709 28.1213 24.8687C27.2819 25.2659 26.3375 25.5638 25.4456 25.8121C24.816 26.0107 24.134 26.0107 23.4519 26.1596C22.6125 26.3582 21.878 26.7554 21.1435 27.0533C20.304 27.4008 19.5695 27.798 18.7301 28.1456C17.8906 28.4931 17.1561 28.94 16.3167 29.2378C15.8969 29.3868 15.4772 29.4861 15.11 29.5854C14.2705 29.8833 13.4836 30.3798 12.5917 30.4791C12.2769 30.5287 11.9621 30.5784 11.6473 30.5784C11.3849 30.5784 11.1751 30.628 10.9652 30.6777C10.1782 30.9756 9.70606 31.7699 8.81415 31.8196C7.9747 31.8196 7.18772 31.7699 6.40075 31.8692C5.98102 31.9189 5.61378 31.8692 5.24652 31.9189C5.14159 31.9189 4.98419 31.9685 4.87926 31.9189C4.77433 31.8692 4.61694 31.7699 4.45954 31.6706C4.14475 31.5217 3.88242 31.3231 3.6201 31.1245C3.09544 30.7273 2.4134 30.9756 1.83628 30.8266C1.67889 30.777 1.41656 30.8266 1.25916 30.7273C0.891905 30.5287 0.419712 30.0819 0.104921 29.8336C0.0524556 30.4791 0 31.1245 0 31.7699C0 32.9119 0.10493 34.0041 0.262326 35.0964C0.314791 35.5929 0.419722 36.0894 0.524652 36.6355C0.682048 37.3306 0.891896 38.0753 1.10176 38.7208C1.41655 39.6641 1.78381 40.6074 2.20353 41.5011C2.88558 41.6004 3.56762 41.6997 4.24967 41.6004C5.24651 41.4515 6.19088 41.3025 7.18772 41.3522C8.1321 41.4018 8.97154 41.6997 9.86345 41.8486C10.8603 41.9976 11.9096 42.1465 12.9589 42.1962C13.9033 42.2458 14.8477 42.3451 15.7396 42.4444C16.4216 42.5437 17.1561 42.643 17.8382 42.6927C19.6745 42.792 21.4583 42.3451 23.2421 42.1962C24.134 42.0969 25.0259 41.8983 25.9178 41.6997C26.4425 41.6004 26.9671 41.4515 27.4393 41.1536C28.0689 40.7564 28.4886 40.2102 29.0133 39.7634C29.6428 39.2669 30.2724 38.7704 30.902 38.3236C31.4267 37.9264 31.9513 37.4796 32.5284 37.132C32.9482 36.8838 33.4203 36.5859 33.8401 36.288C34.627 35.6922 35.3091 34.9971 35.9911 34.2524C36.9355 33.2098 37.3028 31.7699 37.67 30.4791C38.0373 29.2875 38.2471 28.1456 38.9292 27.0533C39.244 26.5568 39.5063 25.961 39.6637 25.3652C39.7686 25.0177 39.8211 24.5709 39.9785 24.2233C40.2408 23.6772 40.8179 23.2303 41.1327 22.7338C41.395 22.3367 41.7098 21.9395 41.8672 21.443C42.2345 20.5493 42.4968 19.6556 42.6542 18.6626C42.7591 17.9676 43.0215 17.2725 43.2313 16.5774C43.2838 16.4781 43.2838 16.3291 43.3362 16.2298C43.3362 16.1802 43.1789 15.9816 43.0215 15.8327ZM10.6504 31.9189C10.7029 31.8196 11.6473 31.472 11.7522 31.4224C11.7522 31.4224 11.7522 31.4224 11.6997 31.4224L11.0701 31.6706C11.7522 31.472 12.9589 32.1175 12.3818 32.8126C12.2244 33.0112 11.7522 33.1105 11.4899 33.1601C11.2276 33.2098 11.0702 33.1105 10.9128 32.9119C10.7554 32.7133 10.6504 32.4154 10.6504 32.1671C10.6504 32.1175 10.6504 31.9685 10.6504 31.9189ZM3.25283 38.2243C2.51832 38.0257 2.04613 37.7774 1.62641 37.1817C1.31162 36.7845 1.10177 36.4369 0.996836 35.9901C0.944371 35.5929 0.786968 35.295 0.891899 34.8978C0.944364 34.5999 1.10177 34.2524 1.25916 34.0041C1.41656 33.7062 1.67888 33.3587 1.67888 33.2594C2.41339 33.2098 3.09544 33.1601 3.77749 33.1601C4.56446 33.1601 5.40391 33.2594 6.19089 33.2594C6.55814 33.2594 6.9254 33.2594 7.29266 33.2098C7.65992 33.1601 7.97471 33.0608 8.34196 33.0112C8.97155 32.9119 9.54866 32.8622 10.1258 33.1105C10.5455 33.309 10.7554 33.8055 10.9652 34.2027C11.0702 34.451 11.1751 34.5999 11.1751 34.8978C11.1751 35.2454 11.1751 35.5432 11.1226 35.8411C11.1226 35.9404 11.0701 36.0894 11.0701 36.1887C10.5455 37.2313 9.18141 37.5788 8.13211 37.976C6.55815 38.5718 4.82679 38.6215 3.25283 38.2243ZM14.4279 40.5081C14.1131 41.3025 12.749 41.5508 11.9621 41.6004C11.5948 41.6004 11.1226 41.5508 10.7554 41.3522C10.5455 41.2529 10.3881 41.0543 10.2307 40.8557C10.1258 40.7067 9.96838 40.4585 9.54866 40.5578C9.65359 40.1109 9.75853 39.7137 9.96839 39.3166C10.1258 39.118 10.3356 38.969 10.5455 38.7704C10.9128 38.4725 11.3325 38.1746 11.7522 37.976C12.4343 37.6285 13.1688 37.8767 13.7983 38.1746C14.2705 38.3732 14.5853 38.6711 14.6903 39.118C14.8477 39.6641 14.6378 40.0116 14.4279 40.5081ZM23.6618 40.3592C23.3995 40.9053 23.0322 41.0543 22.5076 41.3522C21.878 41.6501 21.0385 41.8983 20.3565 41.8983C19.9892 41.8983 19.622 41.7494 19.3072 41.6004C19.0973 41.5011 18.835 41.4515 18.6776 41.3025C18.2054 40.8557 18.1005 40.2599 18.4153 40.3592C18.2054 39.962 18.1005 39.5648 18.048 39.1676C18.153 39.118 18.2054 39.0187 18.2054 38.9194C18.4677 38.4725 18.9399 38.0753 19.4646 37.8271C20.304 37.3803 21.4058 37.281 22.3502 37.6781C22.7699 37.8271 23.0322 38.0257 23.2945 38.3236C23.4519 38.4725 23.6093 38.5718 23.7667 38.7704C23.9241 39.1676 23.8192 39.9123 23.6618 40.3592ZM26.4425 40.2599C26.2851 40.3592 26.0227 40.5578 25.8653 40.5578C25.7079 40.5081 25.4456 40.2599 25.4456 40.0613L25.3407 39.962C25.5505 39.6145 25.7604 39.3166 25.9703 38.969C26.2851 39.118 26.5998 39.0683 26.8097 39.4159C27.072 39.7634 26.7048 40.0613 26.4425 40.2599ZM33.5253 24.6205C33.2629 24.968 32.8957 25.3156 32.476 25.4645C31.9513 25.6631 31.2168 25.8617 31.1643 25.0673C31.1643 24.6205 31.2168 24.273 31.4267 23.8758C31.7414 23.28 32.0038 23.131 32.6334 22.8331C32.8432 22.8331 33.1055 22.9324 33.2629 22.9821C33.5777 23.0814 33.8925 23.3793 33.945 23.7268C33.9974 24.0744 33.7351 24.3723 33.5253 24.6205ZM40.0834 21.294C39.8211 22.0884 39.4538 22.8331 39.0866 23.5282C38.6669 24.4219 38.6144 25.3652 38.3521 26.3086C38.2471 26.8547 37.9323 27.4505 37.4077 27.6491C37.1454 27.7484 36.9355 27.6987 36.6732 27.6987C36.4109 27.6987 35.9911 27.798 35.9911 27.9966C35.8337 27.5994 35.6239 27.1029 35.5189 26.7058C35.414 26.2589 35.3615 25.7624 35.3091 25.2659C35.2041 24.7695 35.2042 24.273 35.1517 23.7765C35.0992 23.3296 34.9943 22.8331 34.9943 22.3863C34.9943 20.8472 35.9387 18.9109 37.4602 18.2158C37.9323 18.0172 38.4045 17.9179 38.9292 17.9676C39.5063 18.0669 39.8736 18.2158 40.1359 18.7619C40.4507 19.5067 40.2933 20.4997 40.0834 21.294Z" fill="url(#paint7_linear_55_6)"/>
<path opacity="0.4" fill-rule="evenodd" clip-rule="evenodd" d="M32.9323 23.335C32.8798 23.3846 32.7749 23.3846 32.7224 23.4343C32.565 23.4343 32.4601 23.3846 32.3552 23.4343L32.9323 23.335Z" fill="url(#paint8_linear_55_6)"/>
<path fill-rule="evenodd" clip-rule="evenodd" d="M25.7452 34.7541C24.6959 34.2576 25.9026 29.8389 26.9519 28.8459C28.0012 27.8529 30.7819 30.1368 31.0967 31.9738C31.4639 33.8604 28.2111 35.8464 25.7452 34.7541Z" fill="url(#paint9_linear_55_6)"/>
<path opacity="0.4" fill-rule="evenodd" clip-rule="evenodd" d="M1.62662 33.2594C1.57415 33.2594 1.5217 33.2594 1.5217 33.2594C1.62663 33.2098 1.62662 33.2098 1.62662 33.2594Z" fill="url(#paint10_linear_55_6)"/>
<path fill-rule="evenodd" clip-rule="evenodd" d="M29.5905 8.78245L33.9451 7.14404C33.9451 7.14404 40.8705 9.67613 45.2776 15.2865L45.5399 18.8612C45.5399 18.8612 37.2504 15.8326 29.5905 8.78245Z" fill="url(#paint11_linear_55_6)"/>
<path fill-rule="evenodd" clip-rule="evenodd" d="M45.4353 45.0757C45.4353 45.0757 41.7627 48.849 39.0345 49.6434L36.7785 50.2888C36.7785 50.2888 26.4429 46.7638 25.8658 40.657C25.3936 35.4935 34.6799 27.5993 37.1983 26.656C39.7166 25.7127 42.6546 26.2588 42.6546 26.2588L45.4353 45.0757Z" fill="url(#paint12_linear_55_6)"/>
<path fill-rule="evenodd" clip-rule="evenodd" d="M42.6547 26.2589C40.4512 25.6135 31.0599 29.7344 28.4891 38.9194C27.9645 40.8061 32.7388 47.9058 38.4575 49.6435C40.3462 50.2393 49.0555 43.0402 49.4227 38.1747C49.79 33.3091 45.9076 27.2519 42.6547 26.2589Z" fill="url(#paint13_linear_55_6)"/>
<path fill-rule="evenodd" clip-rule="evenodd" d="M29.1184 40.0116C30.4825 29.5854 40.5033 26.1596 42.7069 26.805C44.2808 27.3015 46.5893 29.4861 47.9534 31.621C46.5893 28.9399 44.5432 26.7554 42.7069 26.2093C40.5033 25.5638 31.1121 29.6847 28.5413 38.8697C28.3839 39.5151 28.8036 40.806 29.748 42.2955C29.1708 41.3522 29.0135 40.5081 29.1184 40.0116Z" fill="url(#paint14_linear_55_6)"/>
<path opacity="0.3" fill-rule="evenodd" clip-rule="evenodd" d="M10.6509 51.2323C10.6509 51.2323 12.9069 52.0267 14.5333 51.5798C14.5333 51.5798 15.1629 46.5653 13.1693 43.3381C11.1756 40.111 7.76534 44.9766 7.76534 44.9766L6.97836 48.0548C6.97836 48.0548 8.86711 50.1897 10.6509 51.2323Z" fill="black"/>
<path fill-rule="evenodd" clip-rule="evenodd" d="M12.5921 50.438L14.0086 50.0905C14.0086 50.0905 14.6907 47.3101 13.484 44.1326C12.1199 40.5579 7.0832 37.8768 6.34869 37.8272C5.61418 37.7775 4.87967 39.3663 4.87967 39.3663L12.5921 50.438Z" fill="url(#paint15_linear_55_6)"/>
<path fill-rule="evenodd" clip-rule="evenodd" d="M35.3091 53.1686L32.8957 56.0979C32.8957 56.0979 28.7509 57.9845 24.5537 57.0908L21.5107 55.1545L35.3091 53.1686Z" fill="url(#paint16_linear_55_6)"/>
<path fill-rule="evenodd" clip-rule="evenodd" d="M3.83043 41.5507C4.09276 40.4584 5.0896 38.671 5.98151 38.4724C6.87342 38.2738 11.1756 42.1464 12.1724 44.6289C13.1692 47.1113 12.6446 49.842 12.5921 50.3882C12.5397 50.9343 7.71286 49.3952 5.247 47.5085C2.8336 45.6219 3.83043 41.5507 3.83043 41.5507Z" fill="url(#paint17_linear_55_6)"/>
<path fill-rule="evenodd" clip-rule="evenodd" d="M12.1721 44.6291C11.1753 42.1466 6.92562 38.3237 5.98125 38.4726C5.61399 38.5223 5.24674 38.8698 4.93195 39.267C5.14181 39.0684 5.35166 38.9691 5.56152 38.9194C6.45343 38.7209 10.8081 41.7991 11.8049 44.2815C13.0116 47.3101 12.3295 49.4946 12.2246 50.4876C12.4345 50.4876 12.5919 50.4876 12.5919 50.3883C12.6443 49.8422 13.169 47.1115 12.1721 44.6291Z" fill="url(#paint18_linear_55_6)"/>
<path fill-rule="evenodd" clip-rule="evenodd" d="M26.7053 33.8055C25.8658 33.4083 26.8102 29.7343 27.6497 28.8903C28.4891 28.0959 30.6926 29.9825 31.0074 31.5217C31.3222 33.0608 28.699 34.6992 26.7053 33.8055Z" fill="url(#paint19_linear_55_6)"/>
<path fill-rule="evenodd" clip-rule="evenodd" d="M33.9451 7.14404C33.9451 7.14404 34.155 9.62648 37.1455 12.7047C40.136 15.7829 45.2776 15.2865 45.2776 15.2865L45.5399 18.8612C45.5399 18.8612 34.6272 14.2935 29.5905 8.78245L33.9451 7.14404Z" fill="url(#paint20_linear_55_6)"/>
<path fill-rule="evenodd" clip-rule="evenodd" d="M42.4975 29.3372C42.3926 29.4365 42.0778 29.6351 42.3401 29.7841C42.3926 29.8337 42.4451 29.7841 42.4975 29.8337C42.55 29.8337 42.55 29.8834 42.6025 29.8834C42.7599 29.7841 42.7074 29.2876 42.4975 29.3372Z" fill="#0EDBFF"/>
<path fill-rule="evenodd" clip-rule="evenodd" d="M52.7807 25.1667C52.6757 25.266 52.361 25.4646 52.6233 25.6135C52.6758 25.6632 52.7282 25.6135 52.7807 25.6632C52.8331 25.6632 52.8331 25.7128 52.8856 25.7128C53.0955 25.5639 52.9905 25.117 52.7807 25.1667Z" fill="#0EDBFF"/>
<path fill-rule="evenodd" clip-rule="evenodd" d="M48.2686 42.4444C48.1636 42.5437 47.8488 42.7423 48.1112 42.8912C48.1636 42.9409 48.2161 42.8912 48.2686 42.9409C48.321 42.9409 48.321 42.9905 48.3735 42.9905C48.5834 42.8912 48.4784 42.3947 48.2686 42.4444Z" fill="#0EDBFF"/>
<path fill-rule="evenodd" clip-rule="evenodd" d="M43.3894 31.0748C43.4943 31.0251 43.5468 31.0251 43.6517 31.0251C43.6517 31.1244 43.7566 31.323 43.5992 31.4223C43.4943 31.472 43.4943 31.2734 43.4418 31.2237L43.3894 31.0748Z" fill="#0EDBFF"/>
<path fill-rule="evenodd" clip-rule="evenodd" d="M27.0727 32.1175C27.2301 32.1671 27.3875 32.2664 27.5449 32.3161C27.5973 32.2664 27.6498 32.2664 27.7547 32.2664C27.8597 32.2168 27.9121 32.1175 27.9121 32.0182C27.9646 31.8692 27.9121 31.7699 27.8072 31.6706C27.7547 31.621 27.7022 31.5217 27.6498 31.4721C27.5973 31.4224 27.4399 31.4224 27.335 31.4721C27.2301 31.5217 27.1776 31.621 27.1251 31.7203C27.0727 31.8196 26.9677 31.9189 26.9677 32.0182C26.9677 32.1175 27.0727 32.2168 27.1251 32.3161L27.0727 32.1175Z" fill="#0EDBFF"/>
<path fill-rule="evenodd" clip-rule="evenodd" d="M3.88307 43.8347C4.04047 43.8843 4.19786 43.9836 4.35526 44.0332C4.40772 43.9836 4.46018 43.9836 4.56512 43.9836C4.67005 43.9339 4.72252 43.8346 4.72252 43.7354C4.77499 43.5864 4.72251 43.4871 4.61758 43.3878C4.56512 43.3382 4.51266 43.2389 4.46019 43.1892C4.40773 43.1396 4.25033 43.1396 4.1454 43.1892C4.04047 43.2389 3.98801 43.3382 3.93554 43.4375C3.88308 43.5368 3.77814 43.6361 3.77814 43.7354C3.77814 43.8346 3.88308 43.9339 3.93554 44.0332L3.88307 43.8347Z" fill="#0EDBFF"/>
<path fill-rule="evenodd" clip-rule="evenodd" d="M49.0555 49.9415C49.2129 49.9911 49.3703 50.0904 49.5277 50.1401C49.5802 50.0904 49.6326 50.0904 49.7376 50.0904C49.8425 50.0408 49.895 49.9415 49.895 49.8422C49.9474 49.6932 49.895 49.5939 49.79 49.4946C49.7376 49.445 49.6851 49.3457 49.6326 49.296C49.5802 49.2464 49.4228 49.2464 49.3179 49.296C49.2129 49.3457 49.1604 49.445 49.108 49.5443C49.0555 49.6436 48.9506 49.7429 48.9506 49.8422C48.9506 49.9415 49.0555 50.0408 49.108 50.1401L49.0555 49.9415Z" fill="#0EDBFF"/>
<path fill-rule="evenodd" clip-rule="evenodd" d="M45.8027 45.6717C45.9601 45.7213 46.1175 45.8206 46.2749 45.8703C46.3273 45.8206 46.3798 45.8206 46.4847 45.8206C46.5897 45.771 46.6421 45.6717 46.6421 45.5724C46.6946 45.4234 46.6421 45.3241 46.5372 45.2248C46.4847 45.1752 46.4323 45.0759 46.3798 45.0263C46.3273 44.9766 46.1699 44.9766 46.065 45.0263C45.9601 45.0759 45.9076 45.1752 45.8552 45.2745C45.8027 45.3738 45.6978 45.4731 45.6978 45.5724C45.6978 45.6717 45.8027 45.771 45.8552 45.8703L45.8027 45.6717Z" fill="#0EDBFF"/>
<path fill-rule="evenodd" clip-rule="evenodd" d="M0.735125 16.0809C1.15485 16.2298 1.57456 16.3788 1.99429 16.5774C2.15168 16.4781 2.30907 16.4781 2.46647 16.3788C2.67633 16.2298 2.83372 15.9816 2.93865 15.783C3.04358 15.4355 2.88619 15.1872 2.7288 14.939C2.62387 14.79 2.51894 14.5418 2.36155 14.3928C2.15169 14.2439 1.78443 14.2935 1.57457 14.3928C1.31225 14.4921 1.15485 14.7404 0.997451 14.939C0.840055 15.1376 0.682653 15.4851 0.630188 15.7333C0.630188 15.9816 0.840058 16.2795 1.04992 16.4284L0.735125 16.0809Z" fill="#0EDBFF"/>
<path fill-rule="evenodd" clip-rule="evenodd" d="M28.1219 1.78206C28.5416 1.93101 28.9614 2.07996 29.3811 2.27855C29.5385 2.17925 29.6959 2.17926 29.8533 2.07996C30.0631 1.93101 30.2205 1.68277 30.3254 1.48417C30.4304 1.13663 30.273 0.888385 30.1156 0.640141C30.0107 0.491195 29.9057 0.242951 29.7483 0.0940047C29.5385 -0.0549419 29.1712 -0.00529301 28.9614 0.0940047C28.699 0.193302 28.5416 0.441546 28.3842 0.640141C28.2268 0.838736 28.0694 1.18628 28.017 1.43452C28.017 1.68277 28.2268 1.98066 28.4367 2.12961L28.1219 1.78206Z" fill="#0EDBFF"/>
<path fill-rule="evenodd" clip-rule="evenodd" d="M31.7422 35.99C31.6897 36.0397 31.6372 36.0893 31.5847 36.1886C31.6372 36.2879 31.6897 36.3376 31.7946 36.3872C31.8471 36.3872 31.8995 36.3872 31.952 36.3872C32.0045 36.3376 31.952 36.2879 32.0045 36.2383C32.0569 36.139 32.0569 36.0893 32.0045 35.99C31.952 35.9404 31.952 35.8907 31.8995 35.8907C31.8471 35.8907 31.7422 35.8907 31.7422 35.9404V35.99Z" fill="#0EDBFF"/>
<path fill-rule="evenodd" clip-rule="evenodd" d="M32.1093 38.4725C32.1093 38.5222 31.9519 38.8201 32.1093 38.7208C32.2142 38.6711 32.2142 38.5222 32.1093 38.4725C32.1618 38.4725 32.1618 38.4725 32.1093 38.4725Z" fill="#0EDBFF"/>
<path fill-rule="evenodd" clip-rule="evenodd" d="M40.3463 42.941C40.2414 43.0899 40.2414 43.1396 40.1889 43.2885C40.2414 43.3382 40.3463 43.3382 40.3988 43.3382C40.5037 43.3382 40.5037 43.2885 40.5037 43.2389C40.5037 43.1892 40.5562 43.0899 40.5037 43.0403C40.4512 42.941 40.3988 42.8913 40.3463 42.941Z" fill="#0EDBFF"/>
<path fill-rule="evenodd" clip-rule="evenodd" d="M33.4209 36.288C33.4734 36.3377 33.5259 36.3873 33.5259 36.4866C33.4209 36.4866 33.4209 36.437 33.4209 36.3377C33.4209 36.2384 33.4734 36.288 33.5259 36.1887C33.5259 36.1887 33.5259 36.1887 33.5783 36.1887L33.4209 36.288Z" fill="#0EDBFF"/>
<path fill-rule="evenodd" clip-rule="evenodd" d="M41.2908 29.635C41.2383 29.6846 41.1858 29.7343 41.1334 29.7839C41.1858 29.8336 41.1334 29.9329 41.2383 29.9329C41.2907 29.9329 41.3432 29.8832 41.3957 29.7839C41.4482 29.7343 41.4482 29.6846 41.4482 29.5853C41.4482 29.5357 41.4482 29.3867 41.3957 29.486L41.2908 29.635Z" fill="#0EDBFF"/>
<path fill-rule="evenodd" clip-rule="evenodd" d="M40.1889 12.3076C40.2938 12.3076 40.3463 12.2579 40.4512 12.2579C40.4512 12.2579 40.5037 12.2579 40.5562 12.2579C40.6611 12.2579 40.6611 12.2579 40.6611 12.3076C40.7136 12.3572 40.7136 12.4565 40.7136 12.5062C40.6611 12.8041 40.2414 12.3572 40.3988 12.2579L40.1889 12.3076Z" fill="#0EDBFF"/>
<path fill-rule="evenodd" clip-rule="evenodd" d="M6.82112 12.8538C6.66372 12.9035 6.45386 12.9035 6.45386 13.0524C6.45386 13.2014 6.66372 13.3007 6.76865 13.3503C6.97851 13.4 7.29329 13.4496 7.39822 13.2014C7.45069 13.0524 7.39824 12.8042 7.34577 12.7049C7.18838 12.4566 6.82112 12.5559 6.55879 12.6552L6.82112 12.8538Z" fill="#0EDBFF"/>
<path fill-rule="evenodd" clip-rule="evenodd" d="M42.2352 43.2389C42.1827 42.792 42.0778 42.3452 42.4975 42.0969C42.7074 41.948 43.1271 41.948 43.3894 42.0969C43.5468 42.1962 43.7042 42.3948 43.7567 42.5438C43.9141 42.792 43.8616 42.792 43.8091 42.9906C43.6517 43.4871 43.4943 43.785 43.0221 43.785C42.3401 43.785 42.2352 43.2885 42.2352 42.6927V43.2389Z" fill="#0EDBFF"/>
<path fill-rule="evenodd" clip-rule="evenodd" d="M42.5498 30.5784C42.7597 30.5287 42.9171 30.4295 43.022 30.2805C42.8646 30.1812 42.6023 30.0323 42.5498 30.2805V30.5784Z" fill="#0EDBFF"/>
<path fill-rule="evenodd" clip-rule="evenodd" d="M4.93237 42.0473C5.14223 41.9976 5.29963 41.8983 5.40456 41.7494C5.24716 41.6501 4.98484 41.5011 4.93237 41.7494V42.0473Z" fill="#0EDBFF"/>
<path fill-rule="evenodd" clip-rule="evenodd" d="M4.93237 45.8205C5.14223 45.7708 5.29963 45.6715 5.40456 45.5226C5.24716 45.4233 4.98484 45.2743 4.93237 45.5226V45.8205Z" fill="#0EDBFF"/>
<path fill-rule="evenodd" clip-rule="evenodd" d="M33.0537 32.3161C33.2636 32.1175 33.5259 31.7203 33.8407 31.9189C34.0506 32.0678 34.103 32.3657 33.8932 32.5147C33.7358 32.614 33.5784 32.6636 33.3685 32.7133C33.2111 32.7629 33.0013 32.6636 33.0537 32.465V32.3161Z" fill="#0EDBFF"/>
<path fill-rule="evenodd" clip-rule="evenodd" d="M39.2971 42.0473C39.507 41.8487 39.7693 41.4515 40.0841 41.6501C40.2939 41.799 40.3464 42.0969 40.1365 42.2459C39.9791 42.3452 39.8218 42.3948 39.6119 42.4445C39.4545 42.4941 39.2446 42.3948 39.2971 42.1962V42.0473Z" fill="#0EDBFF"/>
<path fill-rule="evenodd" clip-rule="evenodd" d="M38.3527 9.77551C38.615 9.82516 39.1397 9.82516 39.0872 10.2224C39.0872 10.4209 38.7724 10.6692 38.5625 10.5699C38.3527 10.4706 38.2477 10.3713 38.0903 10.2224C37.9854 10.1231 37.933 9.87481 38.1953 9.82516L38.3527 9.77551Z" fill="#0EDBFF"/>
<path fill-rule="evenodd" clip-rule="evenodd" d="M37.3033 44.5794C37.5132 44.3808 37.7755 43.9836 38.0903 44.1822C38.3001 44.3311 38.3526 44.629 38.1428 44.778C37.9854 44.8773 37.828 44.9269 37.6181 44.9766C37.4607 45.0262 37.2508 44.9269 37.3033 44.7283V44.5794Z" fill="#0EDBFF"/>
<path fill-rule="evenodd" clip-rule="evenodd" d="M28.8041 31.9686C28.5942 32.1175 28.1745 32.2664 28.122 32.614C28.122 32.8126 28.1745 32.9119 28.3843 33.0112C28.5417 33.0608 28.7516 33.0608 28.909 33.0112C29.1188 32.9119 29.3812 32.7133 29.4861 32.5147C29.5386 32.3657 29.5386 32.2664 29.4861 32.1175C29.4336 32.0182 29.3812 31.9189 29.2762 31.9189C28.9614 31.8196 28.8041 32.1175 28.5942 32.2168L28.8041 31.9686Z" fill="#0EDBFF"/>
<path fill-rule="evenodd" clip-rule="evenodd" d="M29.591 31.1742C29.6959 31.2239 29.8533 31.2735 29.9058 31.3728C29.8009 31.4225 29.6435 31.5218 29.4861 31.4721C29.3287 31.4225 29.2762 31.2735 29.3287 31.1246C29.3287 31.0253 29.4861 30.8764 29.591 30.926C29.6435 30.926 29.6435 31.0253 29.6435 31.0253C29.6959 31.1246 29.6959 31.0749 29.6435 31.1742H29.591Z" fill="#0EDBFF"/>
<path fill-rule="evenodd" clip-rule="evenodd" d="M36.0966 29.8336C35.467 30.3301 34.8899 30.9755 34.5751 31.7203C34.4177 32.1175 34.68 32.1175 35.0473 32.0678C35.7293 31.9189 36.4638 31.7699 37.1459 31.5713C37.5656 31.472 38.1427 31.2734 38.4051 30.9259C38.6149 30.6776 38.7198 30.2308 38.6674 29.9329C38.6149 29.4861 38.2477 29.3371 37.8279 29.1882C36.8311 28.9399 35.467 29.9329 35.0998 30.7769L36.0966 29.8336Z" fill="#0EDBFF"/>
<path fill-rule="evenodd" clip-rule="evenodd" d="M32.634 33.2098C32.8438 33.2098 33.0012 33.2595 33.2111 33.3588C33.1586 33.4084 33.1586 33.5077 33.1586 33.5574C33.1061 33.6567 33.0012 33.756 32.9488 33.8056C32.7914 33.9049 32.529 33.9546 32.3716 33.8553C31.847 33.6567 32.634 33.0609 32.8438 33.3091L32.634 33.2098Z" fill="#0EDBFF"/>
<path fill-rule="evenodd" clip-rule="evenodd" d="M3.4633 52.0267C3.41083 52.0763 3.35837 52.126 3.30591 52.2253C3.35837 52.3246 3.41084 52.3742 3.51577 52.4239C3.56823 52.4239 3.62071 52.4239 3.67317 52.4239C3.72564 52.3742 3.67316 52.3246 3.72562 52.2749C3.77809 52.1756 3.77809 52.126 3.72562 52.0267C3.67316 51.977 3.67317 51.9274 3.6207 51.9274C3.56824 51.9274 3.4633 51.9274 3.4633 51.977V52.0267Z" fill="#0EDBFF"/>
<path fill-rule="evenodd" clip-rule="evenodd" d="M3.88309 54.5092C3.88309 54.5588 3.7257 54.8567 3.88309 54.7574C3.98802 54.7078 3.93556 54.5588 3.88309 54.5092C3.88309 54.5588 3.88309 54.5092 3.88309 54.5092Z" fill="#0EDBFF"/>
<path fill-rule="evenodd" clip-rule="evenodd" d="M5.14218 52.3245C5.19465 52.3742 5.24712 52.4238 5.24712 52.5231C5.14219 52.5231 5.14218 52.4735 5.14218 52.3742C5.14218 52.2749 5.19465 52.3245 5.24712 52.2252C5.24712 52.2252 5.24711 52.2252 5.29957 52.2252L5.14218 52.3245Z" fill="#0EDBFF"/>
<path fill-rule="evenodd" clip-rule="evenodd" d="M4.35523 49.2463C4.56509 49.2463 4.72249 49.296 4.93235 49.3953C4.87988 49.4449 4.87988 49.5442 4.87988 49.5939C4.82742 49.6932 4.72249 49.7925 4.67002 49.8421C4.51263 49.9414 4.2503 49.9911 4.0929 49.8918C3.56825 49.6932 4.35523 49.0974 4.56509 49.3456L4.35523 49.2463Z" fill="#0EDBFF"/>
<path fill-rule="evenodd" clip-rule="evenodd" d="M37.3033 10.2223C37.4607 10.3216 37.6706 10.4209 37.828 10.5699C37.9854 10.7685 38.1428 10.9174 38.2477 11.116C38.3002 11.2153 38.4576 11.4635 38.2477 11.4635C38.0378 11.5132 37.6181 11.2153 37.4083 11.0663C37.0935 10.8678 36.8311 10.7188 36.6213 10.4209C36.5164 10.272 36.359 10.0237 36.4639 9.87478C36.5688 9.72583 36.6737 9.72583 36.8311 9.72583C36.9885 9.72583 37.0935 9.77548 37.2509 9.87478C37.3033 9.92443 37.6181 10.2223 37.5132 10.272L37.3033 10.2223Z" fill="#0EDBFF"/>
<path fill-rule="evenodd" clip-rule="evenodd" d="M39.6118 28.9896C39.5069 29.0393 38.8773 29.3868 39.1921 29.5358C39.3495 29.6351 39.7168 29.5854 39.8742 29.5358C40.0316 29.4861 40.1889 29.3868 40.084 29.2379C39.8742 28.8903 39.402 29.0889 39.1396 29.2379L39.6118 28.9896Z" fill="#0EDBFF"/>
<path fill-rule="evenodd" clip-rule="evenodd" d="M44.3337 8.58398C44.1238 8.73293 42.4449 9.57696 43.2319 9.97415C43.6516 10.1727 44.4911 10.1231 44.9108 9.9245C45.2781 9.77556 45.6978 9.52731 45.4354 9.13012C44.9633 8.28609 43.7566 8.78258 43.127 9.13012L44.3337 8.58398Z" fill="#0EDBFF"/>
<path fill-rule="evenodd" clip-rule="evenodd" d="M5.1947 44.0828C5.24717 44.4304 5.35209 44.8276 5.66689 45.0758C6.03414 45.3241 6.4014 45.2248 6.76866 45.0262C7.03098 44.8772 7.24084 44.7283 7.50317 44.5793C7.66056 44.48 7.76549 44.48 7.76549 44.2814C7.76549 44.0828 7.55563 43.7849 7.4507 43.636C7.2933 43.4374 6.97852 43.2388 6.76866 43.1395C6.24401 42.9409 5.24717 43.1395 5.24717 43.7849L5.1947 44.0828Z" fill="#0EDBFF"/>
<path fill-rule="evenodd" clip-rule="evenodd" d="M39.9266 44.8276C39.9791 45.0759 40.0315 45.3738 40.2414 45.5227C40.5037 45.7213 40.7661 45.622 41.0284 45.4731C41.1858 45.3738 41.3956 45.2745 41.553 45.1752C41.658 45.1255 41.7629 45.1255 41.7629 44.9766C41.7629 44.8276 41.6055 44.629 41.553 44.5297C41.4481 44.3808 41.2382 44.2318 41.0808 44.1822C40.7136 44.0333 40.0315 44.1822 40.0315 44.629L39.9266 44.8276Z" fill="#0EDBFF"/>
<path fill-rule="evenodd" clip-rule="evenodd" d="M33.9979 7.54126C33.9979 7.54126 35.1522 12.109 38.3525 13.8467C42.3924 16.0312 45.2255 15.2865 45.2255 15.2865C45.2255 15.2865 41.6054 15.1872 38.2476 13.0026C35.467 11.1656 33.9979 7.54126 33.9979 7.54126Z" fill="url(#paint21_linear_55_6)"/>
<path opacity="0.2" fill-rule="evenodd" clip-rule="evenodd" d="M26.3903 42.8912L28.5414 39.9122C28.5414 39.9122 31.322 47.3596 38.4573 49.6931L36.8833 50.6364C36.9358 50.6364 29.5907 48.6504 26.3903 42.8912Z" fill="black"/>
<path opacity="0.3" fill-rule="evenodd" clip-rule="evenodd" d="M30.4826 9.77551C30.4826 9.77551 40.8182 19.606 48.2683 23.9751C48.2683 23.9751 47.5338 21.294 45.5401 18.8116C45.5401 18.8612 39.2967 16.9249 30.4826 9.77551Z" fill="black"/>
<defs>
<linearGradient id="paint0_linear_55_6" x1="8.29856" y1="19.232" x2="8.29856" y2="11.086" gradientUnits="userSpaceOnUse">
<stop stop-color="#9A00B3"/>
<stop offset="1" stop-color="#7F72FF"/>
</linearGradient>
<linearGradient id="paint1_linear_55_6" x1="6.39363" y1="19.6446" x2="9.3198" y2="10.2046" gradientUnits="userSpaceOnUse">
<stop stop-color="#5B008B"/>
<stop offset="1" stop-color="#8E00FF"/>
</linearGradient>
<radialGradient id="paint2_radial_55_6" cx="0" cy="0" r="1" gradientUnits="userSpaceOnUse" gradientTransform="translate(9.41614 20.8501) scale(39.9268 37.7835)">
<stop offset="0.00558659" stop-color="#60DBFF"/>
<stop offset="0.0937306" stop-color="#60D5FF"/>
<stop offset="0.211" stop-color="#5FC4FF"/>
<stop offset="0.3446" stop-color="#5DA9FF"/>
<stop offset="0.4903" stop-color="#5A82FF"/>
<stop offset="0.6442" stop-color="#5751FF"/>
<stop offset="0.6844" stop-color="#5643FF"/>
<stop offset="0.7432" stop-color="#563DF8"/>
<stop offset="0.8282" stop-color="#552EE5"/>
<stop offset="0.9287" stop-color="#5315C6"/>
<stop offset="1" stop-color="#5200AB"/>
</radialGradient>
<linearGradient id="paint3_linear_55_6" x1="-0.0462743" y1="25.399" x2="35.7086" y2="25.399" gradientUnits="userSpaceOnUse">
<stop offset="0.0111732" stop-color="#81E0FF"/>
<stop offset="0.3224" stop-color="#82DDFF"/>
<stop offset="0.5506" stop-color="#86D4FF"/>
<stop offset="0.7523" stop-color="#8BC4FF"/>
<stop offset="0.9375" stop-color="#94ADFF"/>
<stop offset="1" stop-color="#97A4FF"/>
</linearGradient>
<linearGradient id="paint4_linear_55_6" x1="0.181058" y1="18.7411" x2="31.4402" y2="18.7411" gradientUnits="userSpaceOnUse">
<stop stop-color="#B8C2FF"/>
<stop offset="1" stop-color="#7D72B3"/>
</linearGradient>
<linearGradient id="paint5_linear_55_6" x1="5.25381" y1="40.7597" x2="49.6656" y2="40.7597" gradientUnits="userSpaceOnUse">
<stop stop-color="#B8C2FF"/>
<stop offset="1" stop-color="#7D72B3"/>
</linearGradient>
<linearGradient id="paint6_linear_55_6" x1="2.6308" y1="32.0665" x2="46.9535" y2="32.0665" gradientUnits="userSpaceOnUse">
<stop stop-color="#B8C2FF"/>
<stop offset="1" stop-color="#7D72B3"/>
</linearGradient>
<linearGradient id="paint7_linear_55_6" x1="-0.0451725" y1="26.2052" x2="43.5219" y2="26.2052" gradientUnits="userSpaceOnUse">
<stop stop-color="#B8C2FF"/>
<stop offset="1" stop-color="#7D72B3"/>
</linearGradient>
<linearGradient id="paint8_linear_55_6" x1="32.3206" y1="23.4079" x2="32.9186" y2="23.4079" gradientUnits="userSpaceOnUse">
<stop stop-color="#E8DDFF"/>
<stop offset="1" stop-color="#AA8AD8"/>
</linearGradient>
<linearGradient id="paint9_linear_55_6" x1="27.2785" y1="35.2546" x2="29.2023" y2="29.0483" gradientUnits="userSpaceOnUse">
<stop stop-color="#5B008B"/>
<stop offset="1" stop-color="#8E00FF"/>
</linearGradient>
<linearGradient id="paint10_linear_55_6" x1="1.51325" y1="33.2647" x2="1.63743" y2="33.2647" gradientUnits="userSpaceOnUse">
<stop stop-color="#E8DDFF"/>
<stop offset="1" stop-color="#AA8AD8"/>
</linearGradient>
<linearGradient id="paint11_linear_55_6" x1="29.5748" y1="12.9937" x2="45.5272" y2="12.9937" gradientUnits="userSpaceOnUse">
<stop stop-color="#7F72FF"/>
<stop offset="1" stop-color="#9A00B3"/>
</linearGradient>
<linearGradient id="paint12_linear_55_6" x1="33.1985" y1="49.2324" x2="40.5192" y2="25.6156" gradientUnits="userSpaceOnUse">
<stop stop-color="#280077"/>
<stop offset="1" stop-color="#812CFF"/>
</linearGradient>
<linearGradient id="paint13_linear_55_6" x1="35.515" y1="48.757" x2="42.4985" y2="26.2291" gradientUnits="userSpaceOnUse">
<stop stop-color="#7A00B3"/>
<stop offset="1" stop-color="#B136FF"/>
</linearGradient>
<linearGradient id="paint14_linear_55_6" x1="38.174" y1="42.3597" x2="38.174" y2="26.2071" gradientUnits="userSpaceOnUse">
<stop stop-color="#8E00B3"/>
<stop offset="1" stop-color="#E05CFF"/>
</linearGradient>
<linearGradient id="paint15_linear_55_6" x1="7.99091" y1="48.9856" x2="11.0149" y2="39.2301" gradientUnits="userSpaceOnUse">
<stop stop-color="#280077"/>
<stop offset="1" stop-color="#812CFF"/>
</linearGradient>
<linearGradient id="paint16_linear_55_6" x1="28.4286" y1="57.3569" x2="28.4286" y2="53.1737" gradientUnits="userSpaceOnUse">
<stop stop-color="#7A00B3"/>
<stop offset="0.9162" stop-color="#7006FC"/>
<stop offset="1" stop-color="#7006F9"/>
</linearGradient>
<linearGradient id="paint17_linear_55_6" x1="8.1915" y1="50.5286" x2="8.1915" y2="38.5048" gradientUnits="userSpaceOnUse">
<stop stop-color="#7A00B3"/>
<stop offset="1" stop-color="#B136FF"/>
</linearGradient>
<linearGradient id="paint18_linear_55_6" x1="8.85718" y1="50.5241" x2="8.85718" y2="38.505" gradientUnits="userSpaceOnUse">
<stop stop-color="#8E00B3"/>
<stop offset="1" stop-color="#E05CFF"/>
</linearGradient>
<linearGradient id="paint19_linear_55_6" x1="27.9302" y1="34.2098" x2="29.5214" y2="29.0765" gradientUnits="userSpaceOnUse">
<stop stop-color="#A400CA"/>
<stop offset="1" stop-color="#B136FF"/>
</linearGradient>
<linearGradient id="paint20_linear_55_6" x1="36.7474" y1="16.1284" x2="39.0438" y2="8.72011" gradientUnits="userSpaceOnUse">
<stop stop-color="#5B008B"/>
<stop offset="1" stop-color="#8E00FF"/>
</linearGradient>
<linearGradient id="paint21_linear_55_6" x1="39.6333" y1="15.4108" x2="39.6333" y2="7.54652" gradientUnits="userSpaceOnUse">
<stop stop-color="#B000D9"/>
<stop offset="1" stop-color="#E05CFF"/>
</linearGradient>
</defs>
</svg>
