<svg width="105" height="60" viewBox="0 0 105 60" fill="none" xmlns="http://www.w3.org/2000/svg">
<path d="M5.85413 41.9881C5.87653 42.6601 5.61833 44.0067 6.78959 42.4689C11.3248 36.5142 14.5167 29.1908 17.9112 22.5773C19.4256 19.6267 21.1185 16.4884 22.3676 13.3657C22.6138 12.7502 22.1905 14.6813 22.0428 15.3275C20.7101 21.158 18.6329 26.7589 17.7033 32.6855C17.6881 32.7822 17.0217 38.449 17.2875 38.3242C18.3454 37.8277 19.4545 36.5304 20.2498 35.8037C22.4818 33.7644 24.8409 31.8089 26.9539 29.6453C30.8247 25.6818 33.2585 20.6745 34.8274 15.4055C34.9014 15.1568 34.9563 14.9028 35.0223 14.6519C35.1176 14.2898 35.0917 14.3596 35.0743 14.7688C35.0072 16.3446 34.8706 17.9314 34.5935 19.4851C33.5464 25.3584 31.0008 30.7792 29.3446 36.4793C29.138 37.1902 28.5596 38.5539 28.63 39.3636C28.6756 39.8885 29.6213 38.9736 30.0462 38.662C32.7697 36.6648 35.6431 34.569 37.8157 31.9579C38.5885 31.0291 38.842 29.713 38.8291 31.5681C38.8207 32.7783 38.7867 33.9851 38.7122 35.1931C38.6921 35.5183 38.44 36.7379 38.6472 37.103C39.2736 38.2066 42.8777 35.227 43.2465 34.6604C43.4208 34.3927 43.6898 33.4625 43.5843 33.7639C43.3703 34.3754 43.2599 35.0389 43.1426 35.6738C42.8961 37.008 43.6715 36.8568 44.9356 36.8951C45.5167 36.9127 49.9716 36.2756 50.1066 36.5313C50.9384 38.1074 52.266 35.9448 52.835 35.1541C54.03 33.4935 53.3426 35.9761 53.1988 36.7132C53.1486 36.9704 52.9125 37.633 53.3027 37.7916C54.7121 38.3641 58.7946 34.6848 59.0714 34.4525C68.8003 26.2882 75.5683 16.2254 80.509 4.6217C80.7668 4.01634 81.0158 3.4052 81.2106 2.77676C81.4268 2.0794 81.4858 1.74177 80.7689 2.23108C78.4143 3.83818 76.5312 7.18228 75.2081 9.50688C68.9165 20.5605 65.3406 32.7847 60.6565 44.5347C58.964 48.7801 57.325 53.429 54.628 57.1634C54.115 57.8737 53.7153 58.3246 53.1208 57.5272C52.217 56.3147 51.377 54.7705 50.8342 53.3696C49.4998 49.9256 50.9701 46.2138 54.0043 44.1969C54.4359 43.91 56.8392 42.3642 57.4863 42.7417C58.2143 43.1664 60.0229 42.2494 60.7085 42.0141C61.7689 41.6501 64.8023 41.1482 65.3078 39.9613C65.7457 38.9333 69.6928 35.1625 68.7638 34.1666C68.3913 33.7673 67.7795 33.6615 67.2437 33.556C64.4237 33.0005 58.2315 32.9512 56.2261 32.9064C43.3192 32.6175 30.4045 32.6478 17.4954 32.6335C12.6533 32.6282 -1.85684 32.402 2.96979 32.7894C16.7751 33.8976 30.6853 34.4122 44.5198 34.8682C64.0556 35.5122 83.5975 35.6738 103.142 35.6738" stroke="white" stroke-width="3" stroke-linecap="round"/>
</svg>
